<?xml version="1.0" encoding="UTF-8"?>
<svg version="1.1" xmlns="http://www.w3.org/2000/svg" width="1024" height="1024">
<path d="M0 0 C337.92 0 675.84 0 1024 0 C1024 337.92 1024 675.84 1024 1024 C686.08 1024 348.16 1024 0 1024 C0 686.08 0 348.16 0 0 Z " fill="#050E1F" transform="translate(0,0)"/>
<path d="M0 0 C1.24885986 0.20109375 1.24885986 0.20109375 2.52294922 0.40625 C41.36600581 6.86999317 81.42835839 21.24662155 115 42 C115.71640614 65.03113069 112.87876671 87.23168885 108 109.6875 C107.74017334 110.88558792 107.74017334 110.88558792 107.47509766 112.10787964 C105.8429198 119.56353656 104.21712629 126.9815393 101.64355469 134.18041992 C100.64182908 137.01268887 99.90257225 139.9120867 99.125 142.8125 C97.55649537 148.36762057 95.62834773 153.57302503 93.32421875 158.859375 C91.89774436 162.24251781 90.67096533 165.66695644 89.4375 169.125 C80.29906754 194.0134288 67.77436811 218.00507604 53 240 C52.33484375 241.0209375 51.6696875 242.041875 50.984375 243.09375 C35.59828291 266.59691429 17.0184701 288.16986326 -2.82299805 308.00830078 C-4.46496794 309.65250532 -6.09871041 311.30462522 -7.73242188 312.95703125 C-8.77815867 314.00569437 -9.82436447 315.05389004 -10.87109375 316.1015625 C-11.35750839 316.59516266 -11.84392303 317.08876282 -12.34507751 317.59732056 C-15.77111325 321 -15.77111325 321 -18 321 C-18.17042773 306.75863273 -17.79310505 292.54789366 -17.15771484 278.32055664 C-17.05206993 275.80323142 -16.96138715 273.28523623 -16.88525391 270.7668457 C-16.77193878 267.07262916 -16.60973006 263.38328996 -16.4375 259.69140625 C-16.41316895 258.57971573 -16.38883789 257.46802521 -16.36376953 256.32264709 C-15.87316988 247.55795636 -12.60942833 242.58447156 -7 236 C2.2474734 224.43495074 9.58707652 211.79302464 17 199 C17.42200684 198.27377441 17.84401367 197.54754883 18.27880859 196.79931641 C27.2288712 181.22498977 34.79835658 164.14288496 40.32958984 147.04980469 C41.1612774 144.50688819 42.03042197 141.97739283 42.89453125 139.4453125 C47.41221499 125.99922005 50.89291245 112.6065416 53.50048828 98.66650391 C53.96159278 96.20502622 54.44307599 93.74872559 54.93359375 91.29296875 C56.32954002 84.22226742 57.49837863 77.19567201 58 70 C57.195625 69.76216797 57.195625 69.76216797 56.375 69.51953125 C52.40713268 68.33830759 48.44826274 67.14607442 44.51171875 65.86328125 C0.54214604 51.53959899 -45.86247992 50.19841672 -89.5 67.0625 C-90.1496875 67.30548828 -90.799375 67.54847656 -91.46875 67.79882812 C-94.48524163 68.94521658 -97.27960649 70.15780821 -100.09375 71.74609375 C-104.86616366 73.80515932 -108.72947878 72.18547506 -113.38134766 70.37353516 C-115.06174103 69.68556327 -116.73917798 68.99033923 -118.4140625 68.2890625 C-119.30612396 67.9202597 -120.19818542 67.55145691 -121.11727905 67.17147827 C-122.99614002 66.39280842 -124.87369211 65.61097373 -126.75 64.82617188 C-129.61871381 63.62762637 -132.4925486 62.44206545 -135.3671875 61.2578125 C-137.19563328 60.49816749 -139.02376915 59.73777601 -140.8515625 58.9765625 C-141.70891998 58.62332916 -142.56627747 58.27009583 -143.44961548 57.90615845 C-147.31186142 56.28207808 -150.81100327 54.79432431 -154 52 C-136.45813719 41.48366422 -118.83855526 31.56830289 -99.62890625 24.40625 C-96.50624789 23.19617787 -93.42796241 21.92080037 -90.34375 20.6171875 C-63.99851502 9.60383175 -29.07891783 -4.77192498 0 0 Z " fill="#3EAEED" transform="translate(529,338)"/>
<path d="M0 0 C4.36044537 0.74112611 7.71623839 3.15034059 11.375 5.5 C12.43303833 6.17059448 12.43303833 6.17059448 13.51245117 6.85473633 C15.67894526 8.23036904 17.84014431 9.61397241 20 11 C20.63921387 11.40911621 21.27842773 11.81823242 21.93701172 12.23974609 C24.87837768 14.12287585 27.81603252 16.01161534 30.75 17.90625 C33.7624318 19.84695125 36.78515328 21.77018041 39.8125 23.6875 C44.58972653 26.72110972 49.30761737 29.83698653 54 33 C51.74863075 35.44048067 49.42872623 37.08535303 46.578125 38.77734375 C45.28648437 39.54788086 45.28648437 39.54788086 43.96875 40.33398438 C43.0715625 40.86314453 42.174375 41.39230469 41.25 41.9375 C40.36828125 42.46279297 39.4865625 42.98808594 38.578125 43.52929688 C33.74605369 46.40193451 28.89019539 49.22755316 24 52 C28.13162098 60.36456237 32.32216694 68.69207549 36.6875 76.9375 C37.25368042 78.01100708 37.25368042 78.01100708 37.83129883 79.10620117 C40.1840082 83.54204403 42.63581389 87.89455531 45.3203125 92.140625 C46.2498227 94.68342302 45.69871057 96.4351131 45 99 C43.515 99.495 43.515 99.495 42 100 C41.90460938 100.87011719 41.80921875 101.74023438 41.7109375 102.63671875 C40.93016302 106.33038265 39.67122273 108.65682739 37.625 111.8125 C37.01914062 112.76769531 36.41328125 113.72289062 35.7890625 114.70703125 C34 117 34 117 31 118 C30.93296875 118.83917969 30.8659375 119.67835938 30.796875 120.54296875 C29.79222916 124.90135878 27.81617112 127.7122071 25.25 131.3125 C24.33852532 132.63100479 23.42965451 133.95131355 22.5234375 135.2734375 C21.86939941 136.22621582 21.86939941 136.22621582 21.20214844 137.19824219 C18.89074859 140.66252547 16.90501797 144.30025457 15 148 C14.34 148 13.68 148 13 148 C6.79437416 140.88526974 3.07127947 131.44053909 -1 123 C-1.44601562 122.08186523 -1.89203125 121.16373047 -2.3515625 120.21777344 C-36.73811717 49.40120081 -36.73811717 49.40120081 -36 19 C-25.99614988 13.6899616 -15.98165644 8.41782989 -5.81445312 3.42578125 C-2.69843355 2.02484698 -2.69843355 2.02484698 0 0 Z " fill="#255FBC" transform="translate(453,454)"/>
<path d="M0 0 C6.53751905 0.62612858 12.4381853 2.60510687 18.625 4.75 C19.74567871 5.13760498 20.86635742 5.52520996 22.02099609 5.92456055 C38.46481493 11.77047077 54.45979192 19.07641243 70 27 C69.505 28.485 69.505 28.485 69 30 C67.865625 29.38511719 66.73125 28.77023437 65.5625 28.13671875 C64.04180735 27.32005048 62.52096604 26.50365898 61 25.6875 C60.25621094 25.28337891 59.51242187 24.87925781 58.74609375 24.46289062 C53.92501153 21.8846597 49.14739742 19.8402893 44 18 C42.51305415 17.3722845 41.03203856 16.72995124 39.5625 16.0625 C38.81097656 15.72476562 38.05945313 15.38703125 37.28515625 15.0390625 C35.77034565 14.35027682 34.25729399 13.65760867 32.74609375 12.9609375 C26.5457154 10.13572163 20.36293775 7.42801026 13.5625 6.5625 C8.71538054 5.79716535 4.48521992 3.94028628 0 2 C0 1.34 0 0.68 0 0 Z " fill="#60D1EF" transform="translate(564,347)"/>
<path d="M0 0 C0.33 0.99 0.66 1.98 1 3 C0.37534348 3.75595963 -0.24931305 4.51191925 -0.89289856 5.29078674 C-3.43156238 8.55488288 -3.56083432 10.25880356 -3.71362305 14.34741211 C-3.77015549 15.60899643 -3.82668793 16.87058075 -3.88493347 18.1703949 C-3.92747955 19.53936904 -3.96973419 20.90835227 -4.01171875 22.27734375 C-4.06911381 23.69079188 -4.12829013 25.1041687 -4.18916321 26.51747131 C-4.3448596 30.23167136 -4.47860331 33.94633034 -4.60705566 37.66156006 C-4.79188227 42.8906946 -5.00672189 48.11869626 -5.2179718 53.34681702 C-5.33025484 56.12787377 -5.43441697 58.90904578 -5.53190613 61.69065857 C-5.60252007 63.58776329 -5.60252007 63.58776329 -5.67456055 65.52319336 C-5.73307442 67.18601601 -5.73307442 67.18601601 -5.79277039 68.88243103 C-5.99849457 71.97735225 -6.43658935 74.95166787 -7 78 C-6.34 78 -5.68 78 -5 78 C-5 77.34 -5 76.68 -5 76 C-4.01 76.33 -3.02 76.66 -2 77 C-3.28965176 78.37562854 -4.62689293 79.70766393 -6 81 C-6.66 81 -7.32 81 -8 81 C-8.20414069 66.67791888 -7.69737766 52.40495148 -6.99291992 38.10083008 C-6.87172351 35.55603349 -6.76054202 33.01074191 -6.65893555 30.46508789 C-6.50985065 26.74224548 -6.33057099 23.02193803 -6.14453125 19.30078125 C-6.10471634 18.16844559 -6.06490143 17.03610992 -6.02388 15.86946106 C-5.63775678 8.99550333 -4.60845057 5.18294325 0 0 Z " fill="#407BC3" transform="translate(519,578)"/>
<path d="M0 0 C0.33 0.99 0.66 1.98 1 3 C-14.10951745 18.3013375 -14.10951745 18.3013375 -20.34765625 23.5703125 C-23.04528788 25.90443349 -25.50986742 28.4476141 -28 31 C-28.66 30.67 -29.32 30.34 -30 30 C-20.1 20.1 -10.2 10.2 0 0 Z " fill="#072C65" transform="translate(543,628)"/>
<path d="M0 0 C0.33 0 0.66 0 1 0 C0.45685701 6.06395089 -0.89032574 11.20212091 -3.0625 16.875 C-3.36760498 17.68638428 -3.67270996 18.49776855 -3.98706055 19.33374023 C-6.27035952 25.31232517 -8.73286775 31.20613405 -11.3125 37.0625 C-11.64967041 37.82997559 -11.98684082 38.59745117 -12.33422852 39.38818359 C-14.74651225 44.74651225 -14.74651225 44.74651225 -17 47 C-16.53199289 42.94393835 -16.12046792 39.53411321 -14 36 C-13.34 36 -12.68 36 -12 36 C-11.88011719 35.11828125 -11.76023437 34.2365625 -11.63671875 33.328125 C-11.02800981 30.14640713 -10.14050544 27.68966252 -8.8125 24.75 C-5.33019811 16.68572194 -2.69991714 8.35025919 0 0 Z " fill="#52BAEC" transform="translate(624,484)"/>
<path d="M0 0 C0 0.99 0 1.98 0 3 C-2.078138 4.59273351 -4.0869074 5.95583069 -6.3125 7.3125 C-6.94317383 7.70912842 -7.57384766 8.10575684 -8.22363281 8.5144043 C-12.98188641 11.47361572 -17.86277405 14.13654402 -22.890625 16.61328125 C-26.19763787 18.78733601 -26.78154248 21.34462743 -28 25 C-28.99 23.02 -29.98 21.04 -31 19 C-30.34515625 18.60208252 -29.6903125 18.20416504 -29.015625 17.79418945 C-26.01010297 15.96747519 -23.00504854 14.13999306 -20 12.3125 C-18.97003906 11.68666016 -17.94007813 11.06082031 -16.87890625 10.41601562 C-11.22959937 6.97965379 -5.59818868 3.5190537 0 0 Z " fill="#062B64" transform="translate(507,487)"/>
<path d="M0 0 C3.40312738 1.05875074 6.01353231 2.00902154 9 4 C9.35644531 5.9519043 9.35644531 5.9519043 9.328125 8.32421875 C9.32296875 9.18853516 9.3178125 10.05285156 9.3125 10.94335938 C9.291875 11.84892578 9.27125 12.75449219 9.25 13.6875 C9.24484375 14.57373047 9.2396875 15.45996094 9.234375 16.37304688 C9.17554967 21.34011099 8.83069649 26.10291019 8 31 C7.67 31 7.34 31 7 31 C7.05498657 29.90328979 7.05498657 29.90328979 7.11108398 28.78442383 C7.25689275 25.46088038 7.34772042 22.138009 7.4375 18.8125 C7.52547852 17.08676758 7.52547852 17.08676758 7.61523438 15.32617188 C7.96180146 9.29176861 7.96180146 9.29176861 5.41064453 4.11865234 C3.29266307 2.5678728 3.29266307 2.5678728 0 1 C0 0.67 0 0.34 0 0 Z " fill="#67D8F4" transform="translate(635,376)"/>
<path d="M0 0 C0.65880661 0.00141495 1.31761322 0.0028299 1.99638367 0.00428772 C4.08487637 0.00985125 6.17325886 0.02239678 8.26171875 0.03515625 C9.68424324 0.04017597 11.10676941 0.04473805 12.52929688 0.04882812 C16.00263952 0.05980868 19.47591836 0.0770479 22.94921875 0.09765625 C22.94921875 0.42765625 22.94921875 0.75765625 22.94921875 1.09765625 C22.26931885 1.1227124 21.58941895 1.14776855 20.88891602 1.17358398 C17.76304596 1.29071447 14.63739247 1.41290281 11.51171875 1.53515625 C10.44244141 1.57447266 9.37316406 1.61378906 8.27148438 1.65429688 C2.1160259 1.89900929 -3.93515069 2.36378058 -10.05078125 3.09765625 C-11.71710095 3.13166277 -13.38498106 3.15139174 -15.05078125 3.09765625 C-10.17931891 -0.14998531 -5.75850736 -0.02450429 0 0 Z " fill="#0D437B" transform="translate(499.05078125,391.90234375)"/>
<path d="M0 0 C-9.42745031 3.41338718 -19.11207943 5.40953023 -29 7 C-26.04796226 4.52246578 -23.64922987 3.42864726 -19.90234375 2.578125 C-18.93619141 2.35769531 -17.97003906 2.13726562 -16.97460938 1.91015625 C-15.97236328 1.69230469 -14.97011719 1.47445313 -13.9375 1.25 C-12.93138672 1.01667969 -11.92527344 0.78335937 -10.88867188 0.54296875 C-3.39014668 -1.13004889 -3.39014668 -1.13004889 0 0 Z " fill="#0A3F79" transform="translate(475,396)"/>
<path d="M0 0 C1.19482663 3.41489159 0.85750977 5.0788922 -0.6875 8.3125 C-1.05746094 9.09109375 -1.42742188 9.8696875 -1.80859375 10.671875 C-3.4354672 13.85094574 -5.17221876 16.93193864 -7 20 C-7.66 20 -8.32 20 -9 20 C-7.32073668 15.63221913 -5.36694083 11.41834992 -3.375 7.1875 C-2.88773438 6.14819336 -2.88773438 6.14819336 -2.390625 5.08789062 C-1.59500115 3.39133977 -0.79767301 1.69558835 0 0 Z " fill="#3F83CA" transform="translate(557,515)"/>
<path d="M0 0 C0.33 0.99 0.66 1.98 1 3 C-0.13831121 4.67398708 -1.29009646 6.34096651 -2.51953125 7.94921875 C-5.03044706 11.42740028 -6.98547789 15.21955637 -9 19 C-9.66 19 -10.32 19 -11 19 C-9.41467191 14.44435939 -7.00996919 10.68524231 -4.375 6.6875 C-3.95476562 6.04232422 -3.53453125 5.39714844 -3.1015625 4.73242188 C-2.07161759 3.15239276 -1.03634372 1.57583953 0 0 Z " fill="#042B68" transform="translate(480,581)"/>
<path d="M0 0 C0.66 0.33 1.32 0.66 2 1 C0.38395881 3.98411132 -1.24430729 6.9613735 -2.875 9.9375 C-3.33519531 10.78763672 -3.79539062 11.63777344 -4.26953125 12.51367188 C-4.71425781 13.32255859 -5.15898438 14.13144531 -5.6171875 14.96484375 C-6.22989502 16.08814087 -6.22989502 16.08814087 -6.85498047 17.23413086 C-8 19 -8 19 -10 20 C-9.35762119 16.87281524 -8.27319746 14.45142467 -6.6875 11.6875 C-6.2440625 10.90890625 -5.800625 10.1303125 -5.34375 9.328125 C-4.9003125 8.55984375 -4.456875 7.7915625 -4 7 C-3.22905182 5.64589871 -2.4582054 4.29173948 -1.6875 2.9375 C-1.130625 1.968125 -0.57375 0.99875 0 0 Z " fill="#448CD4" transform="translate(596,550)"/>
<path d="M0 0 C0 4.71430751 -3.01156135 7.52165337 -6 11 C-8.875 13.5 -8.875 13.5 -11 15 C-9.3718356 11.24269753 -6.98598083 8.383177 -4.375 5.25 C-3.55773437 4.26515625 -2.74046875 3.2803125 -1.8984375 2.265625 C-1.27195312 1.51796875 -0.64546875 0.7703125 0 0 Z " fill="#08306B" transform="translate(566,600)"/>
<path d="M0 0 C0.66 0.66 1.32 1.32 2 2 C-1.3 5.3 -4.6 8.6 -8 12 C-8 8.03869629 -6.65122875 7.17085599 -4 4.3125 C-3.2575 3.50425781 -2.515 2.69601562 -1.75 1.86328125 C-1.1725 1.24839844 -0.595 0.63351562 0 0 Z " fill="#062E69" transform="translate(553,616)"/>
<path d="M0 0 C1.77155654 0.11429397 3.54226229 0.24183037 5.3125 0.375 C6.79169922 0.47941406 6.79169922 0.47941406 8.30078125 0.5859375 C11 1 11 1 14 3 C8.87160006 4.81975482 4.82315618 2.8599099 0 1 C0 0.67 0 0.34 0 0 Z " fill="#50C0F0" transform="translate(524,338)"/>
<path d="M0 0 C4.05606165 0.46800711 7.46588679 0.87953208 11 3 C11 3.66 11 4.32 11 5 C9.35153231 4.55123384 7.70626545 4.09069512 6.0625 3.625 C5.14597656 3.36976563 4.22945312 3.11453125 3.28515625 2.8515625 C1 2 1 2 0 0 Z " fill="#66DCF7" transform="translate(599,360)"/>
</svg>
